<mxfile host="Electron" agent="Mozilla/5.0 (X11; Linux x86_64) AppleWebKit/537.36 (KHTML, like Gecko) draw.io/24.7.5 Chrome/126.0.6478.234 Electron/31.4.0 Safari/537.36" version="24.7.5">
  <diagram name="Page-1" id="UUPzkfXX2S4IEnVxLUbJ">
    <mxGraphModel dx="1434" dy="3174" grid="1" gridSize="10" guides="1" tooltips="1" connect="1" arrows="1" fold="1" page="1" pageScale="1" pageWidth="3300" pageHeight="2339" math="0" shadow="0">
      <root>
        <mxCell id="0" />
        <mxCell id="1" parent="0" />
        <mxCell id="rNiYW2FCLf6vyMSnKIOH-11" value="&lt;b&gt;Rust FFI Library&lt;/b&gt;" style="rounded=0;whiteSpace=wrap;html=1;fillColor=#f5f5f5;verticalAlign=top;align=left;strokeColor=#666666;fontColor=#333333;" parent="1" vertex="1">
          <mxGeometry x="280" width="840" height="160" as="geometry" />
        </mxCell>
        <mxCell id="rNiYW2FCLf6vyMSnKIOH-48" value="ReaderFuture" style="rounded=0;whiteSpace=wrap;html=1;fillColor=#dae8fc;strokeColor=#6c8ebf;fontStyle=1;verticalAlign=top;align=left;" parent="1" vertex="1">
          <mxGeometry x="730" y="20" width="370" height="120" as="geometry" />
        </mxCell>
        <mxCell id="rNiYW2FCLf6vyMSnKIOH-1" value="&lt;b&gt;BtpSevice&lt;/b&gt;" style="rounded=0;whiteSpace=wrap;html=1;fillColor=#f5f5f5;verticalAlign=top;align=left;strokeColor=#666666;fontColor=#333333;" parent="1" vertex="1">
          <mxGeometry x="280" y="190" width="840" height="340" as="geometry" />
        </mxCell>
        <mxCell id="rNiYW2FCLf6vyMSnKIOH-2" value="Zenoh Application" style="rounded=0;whiteSpace=wrap;html=1;fillColor=#d5e8d4;strokeColor=#82b366;fontStyle=1;verticalAlign=top;align=left;" parent="1" vertex="1">
          <mxGeometry x="510" y="290" width="580" height="220" as="geometry" />
        </mxCell>
        <mxCell id="rNiYW2FCLf6vyMSnKIOH-7" style="edgeStyle=orthogonalEdgeStyle;rounded=0;orthogonalLoop=1;jettySize=auto;html=1;entryX=0.5;entryY=0;entryDx=0;entryDy=0;" parent="1" source="rNiYW2FCLf6vyMSnKIOH-3" target="rNiYW2FCLf6vyMSnKIOH-6" edge="1">
          <mxGeometry relative="1" as="geometry" />
        </mxCell>
        <mxCell id="rNiYW2FCLf6vyMSnKIOH-3" value="write(buf)" style="rounded=0;whiteSpace=wrap;html=1;fillColor=#CCCCCC;strokeColor=#666666;fontColor=#333333;" parent="1" vertex="1">
          <mxGeometry x="630" y="190" width="130" height="40" as="geometry" />
        </mxCell>
        <mxCell id="rNiYW2FCLf6vyMSnKIOH-9" style="edgeStyle=orthogonalEdgeStyle;rounded=0;orthogonalLoop=1;jettySize=auto;html=1;" parent="1" source="rNiYW2FCLf6vyMSnKIOH-4" target="rNiYW2FCLf6vyMSnKIOH-8" edge="1">
          <mxGeometry relative="1" as="geometry" />
        </mxCell>
        <mxCell id="rNiYW2FCLf6vyMSnKIOH-4" value="subscribe_cb(void*)" style="rounded=0;whiteSpace=wrap;html=1;fillColor=#CCCCCC;strokeColor=#666666;fontColor=#333333;" parent="1" vertex="1">
          <mxGeometry x="825" y="190" width="120" height="40" as="geometry" />
        </mxCell>
        <mxCell id="rNiYW2FCLf6vyMSnKIOH-5" value="boost::io_context" style="rounded=0;whiteSpace=wrap;html=1;fillColor=#fff2cc;strokeColor=#d6b656;" parent="1" vertex="1">
          <mxGeometry x="290" y="340" width="160" height="120" as="geometry" />
        </mxCell>
        <mxCell id="rNiYW2FCLf6vyMSnKIOH-6" value="write(buf)" style="rounded=0;whiteSpace=wrap;html=1;fillColor=#B3FF66;strokeColor=#82b366;" parent="1" vertex="1">
          <mxGeometry x="630" y="290" width="130" height="40" as="geometry" />
        </mxCell>
        <mxCell id="rNiYW2FCLf6vyMSnKIOH-8" value="subscribe_cb(void (*) (void *buf, size_t len))" style="rounded=0;whiteSpace=wrap;html=1;fillColor=#B3FF66;strokeColor=#82b366;" parent="1" vertex="1">
          <mxGeometry x="825" y="290" width="255" height="40" as="geometry" />
        </mxCell>
        <mxCell id="rNiYW2FCLf6vyMSnKIOH-36" style="edgeStyle=orthogonalEdgeStyle;rounded=0;orthogonalLoop=1;jettySize=auto;html=1;" parent="1" source="rNiYW2FCLf6vyMSnKIOH-10" target="rNiYW2FCLf6vyMSnKIOH-34" edge="1">
          <mxGeometry relative="1" as="geometry" />
        </mxCell>
        <mxCell id="rNiYW2FCLf6vyMSnKIOH-10" value="timer_callback()" style="rounded=0;whiteSpace=wrap;html=1;fillColor=#B3FF66;strokeColor=#82b366;" parent="1" vertex="1">
          <mxGeometry x="630" y="470" width="130" height="40" as="geometry" />
        </mxCell>
        <mxCell id="rNiYW2FCLf6vyMSnKIOH-42" style="edgeStyle=orthogonalEdgeStyle;rounded=0;orthogonalLoop=1;jettySize=auto;html=1;entryX=1;entryY=0.5;entryDx=0;entryDy=0;" parent="1" source="rNiYW2FCLf6vyMSnKIOH-22" target="rNiYW2FCLf6vyMSnKIOH-41" edge="1">
          <mxGeometry relative="1" as="geometry">
            <Array as="points">
              <mxPoint x="1200" y="405" />
              <mxPoint x="1200" y="115" />
            </Array>
          </mxGeometry>
        </mxCell>
        <mxCell id="rNiYW2FCLf6vyMSnKIOH-43" value="call" style="edgeLabel;html=1;align=center;verticalAlign=middle;resizable=0;points=[];" parent="rNiYW2FCLf6vyMSnKIOH-42" vertex="1" connectable="0">
          <mxGeometry x="0.3502" y="2" relative="1" as="geometry">
            <mxPoint y="1" as="offset" />
          </mxGeometry>
        </mxCell>
        <mxCell id="rNiYW2FCLf6vyMSnKIOH-22" value="Table of callbacks" style="shape=card;whiteSpace=wrap;html=1;size=20;fillColor=#f5f5f5;fontColor=#333333;strokeColor=#666666;" parent="1" vertex="1">
          <mxGeometry x="917.5" y="370" width="70" height="70" as="geometry" />
        </mxCell>
        <mxCell id="rNiYW2FCLf6vyMSnKIOH-23" style="edgeStyle=orthogonalEdgeStyle;rounded=0;orthogonalLoop=1;jettySize=auto;html=1;entryX=0.5;entryY=0;entryDx=0;entryDy=0;entryPerimeter=0;" parent="1" source="rNiYW2FCLf6vyMSnKIOH-8" target="rNiYW2FCLf6vyMSnKIOH-22" edge="1">
          <mxGeometry relative="1" as="geometry" />
        </mxCell>
        <mxCell id="rNiYW2FCLf6vyMSnKIOH-24" value="Insert" style="edgeLabel;html=1;align=center;verticalAlign=middle;resizable=0;points=[];" parent="rNiYW2FCLf6vyMSnKIOH-23" vertex="1" connectable="0">
          <mxGeometry x="-0.152" y="3" relative="1" as="geometry">
            <mxPoint as="offset" />
          </mxGeometry>
        </mxCell>
        <mxCell id="rNiYW2FCLf6vyMSnKIOH-25" value="indication()" style="rounded=0;whiteSpace=wrap;html=1;fillColor=#B3FF66;strokeColor=#82b366;" parent="1" vertex="1">
          <mxGeometry x="887.5" y="470" width="130" height="40" as="geometry" />
        </mxCell>
        <mxCell id="rNiYW2FCLf6vyMSnKIOH-26" style="edgeStyle=orthogonalEdgeStyle;rounded=0;orthogonalLoop=1;jettySize=auto;html=1;entryX=0.5;entryY=1;entryDx=0;entryDy=0;entryPerimeter=0;" parent="1" source="rNiYW2FCLf6vyMSnKIOH-25" target="rNiYW2FCLf6vyMSnKIOH-22" edge="1">
          <mxGeometry relative="1" as="geometry" />
        </mxCell>
        <mxCell id="rNiYW2FCLf6vyMSnKIOH-27" value="lookup" style="edgeLabel;html=1;align=center;verticalAlign=middle;resizable=0;points=[];" parent="rNiYW2FCLf6vyMSnKIOH-26" vertex="1" connectable="0">
          <mxGeometry x="0.36" y="-3" relative="1" as="geometry">
            <mxPoint x="25" as="offset" />
          </mxGeometry>
        </mxCell>
        <mxCell id="rNiYW2FCLf6vyMSnKIOH-32" style="edgeStyle=orthogonalEdgeStyle;rounded=0;orthogonalLoop=1;jettySize=auto;html=1;entryX=0.5;entryY=0;entryDx=0;entryDy=0;" parent="1" source="rNiYW2FCLf6vyMSnKIOH-28" target="rNiYW2FCLf6vyMSnKIOH-10" edge="1">
          <mxGeometry relative="1" as="geometry" />
        </mxCell>
        <mxCell id="rNiYW2FCLf6vyMSnKIOH-33" value="pop" style="edgeLabel;html=1;align=center;verticalAlign=middle;resizable=0;points=[];" parent="rNiYW2FCLf6vyMSnKIOH-32" vertex="1" connectable="0">
          <mxGeometry y="3" relative="1" as="geometry">
            <mxPoint as="offset" />
          </mxGeometry>
        </mxCell>
        <mxCell id="rNiYW2FCLf6vyMSnKIOH-28" value="write buffer" style="shape=cylinder3;whiteSpace=wrap;html=1;boundedLbl=1;backgroundOutline=1;size=15;fillColor=#f5f5f5;fontColor=#333333;strokeColor=#666666;" parent="1" vertex="1">
          <mxGeometry x="667.5" y="360" width="55" height="60" as="geometry" />
        </mxCell>
        <mxCell id="rNiYW2FCLf6vyMSnKIOH-30" style="edgeStyle=orthogonalEdgeStyle;rounded=0;orthogonalLoop=1;jettySize=auto;html=1;entryX=0.5;entryY=0;entryDx=0;entryDy=0;entryPerimeter=0;" parent="1" source="rNiYW2FCLf6vyMSnKIOH-6" target="rNiYW2FCLf6vyMSnKIOH-28" edge="1">
          <mxGeometry relative="1" as="geometry" />
        </mxCell>
        <mxCell id="rNiYW2FCLf6vyMSnKIOH-31" value="push" style="edgeLabel;html=1;align=center;verticalAlign=middle;resizable=0;points=[];" parent="rNiYW2FCLf6vyMSnKIOH-30" vertex="1" connectable="0">
          <mxGeometry x="0.32" y="1" relative="1" as="geometry">
            <mxPoint as="offset" />
          </mxGeometry>
        </mxCell>
        <mxCell id="rNiYW2FCLf6vyMSnKIOH-34" value="BTP packet" style="shape=note;whiteSpace=wrap;html=1;backgroundOutline=1;darkOpacity=0.05;size=14;" parent="1" vertex="1">
          <mxGeometry x="660" y="610" width="70" height="60" as="geometry" />
        </mxCell>
        <mxCell id="rNiYW2FCLf6vyMSnKIOH-38" style="edgeStyle=orthogonalEdgeStyle;rounded=0;orthogonalLoop=1;jettySize=auto;html=1;entryX=0.5;entryY=1;entryDx=0;entryDy=0;" parent="1" source="rNiYW2FCLf6vyMSnKIOH-37" target="rNiYW2FCLf6vyMSnKIOH-25" edge="1">
          <mxGeometry relative="1" as="geometry" />
        </mxCell>
        <mxCell id="rNiYW2FCLf6vyMSnKIOH-37" value="BTP packet" style="shape=note;whiteSpace=wrap;html=1;backgroundOutline=1;darkOpacity=0.05;size=14;" parent="1" vertex="1">
          <mxGeometry x="917.5" y="610" width="70" height="60" as="geometry" />
        </mxCell>
        <mxCell id="rNiYW2FCLf6vyMSnKIOH-57" style="edgeStyle=orthogonalEdgeStyle;rounded=0;orthogonalLoop=1;jettySize=auto;html=1;entryX=1;entryY=0.5;entryDx=0;entryDy=0;" parent="1" source="rNiYW2FCLf6vyMSnKIOH-40" target="rNiYW2FCLf6vyMSnKIOH-50" edge="1">
          <mxGeometry relative="1" as="geometry" />
        </mxCell>
        <mxCell id="rNiYW2FCLf6vyMSnKIOH-58" value="Update" style="edgeLabel;html=1;align=center;verticalAlign=middle;resizable=0;points=[];" parent="rNiYW2FCLf6vyMSnKIOH-57" vertex="1" connectable="0">
          <mxGeometry x="-0.0463" relative="1" as="geometry">
            <mxPoint as="offset" />
          </mxGeometry>
        </mxCell>
        <mxCell id="rNiYW2FCLf6vyMSnKIOH-62" style="edgeStyle=orthogonalEdgeStyle;rounded=0;orthogonalLoop=1;jettySize=auto;html=1;entryX=1;entryY=0.5;entryDx=0;entryDy=0;dashed=1;dashPattern=8 8;strokeColor=#FF9933;" parent="1" source="rNiYW2FCLf6vyMSnKIOH-40" target="rNiYW2FCLf6vyMSnKIOH-60" edge="1">
          <mxGeometry relative="1" as="geometry">
            <Array as="points">
              <mxPoint x="1045" y="-10" />
              <mxPoint x="720" y="-10" />
              <mxPoint x="720" y="98" />
            </Array>
          </mxGeometry>
        </mxCell>
        <mxCell id="rNiYW2FCLf6vyMSnKIOH-63" value="Mark waken" style="edgeLabel;html=1;align=center;verticalAlign=middle;resizable=0;points=[];" parent="rNiYW2FCLf6vyMSnKIOH-62" vertex="1" connectable="0">
          <mxGeometry x="0.7128" y="2" relative="1" as="geometry">
            <mxPoint x="-27" y="68" as="offset" />
          </mxGeometry>
        </mxCell>
        <mxCell id="rNiYW2FCLf6vyMSnKIOH-40" value="wake(context)" style="rounded=0;whiteSpace=wrap;html=1;fillColor=#99CCFF;strokeColor=#6c8ebf;" parent="1" vertex="1">
          <mxGeometry x="1000" y="40" width="90" height="30" as="geometry" />
        </mxCell>
        <mxCell id="rNiYW2FCLf6vyMSnKIOH-49" style="edgeStyle=orthogonalEdgeStyle;rounded=0;orthogonalLoop=1;jettySize=auto;html=1;" parent="1" source="rNiYW2FCLf6vyMSnKIOH-41" target="rNiYW2FCLf6vyMSnKIOH-40" edge="1">
          <mxGeometry relative="1" as="geometry" />
        </mxCell>
        <mxCell id="rNiYW2FCLf6vyMSnKIOH-51" value="" style="edgeStyle=orthogonalEdgeStyle;rounded=0;orthogonalLoop=1;jettySize=auto;html=1;" parent="1" source="rNiYW2FCLf6vyMSnKIOH-41" target="rNiYW2FCLf6vyMSnKIOH-40" edge="1">
          <mxGeometry relative="1" as="geometry" />
        </mxCell>
        <mxCell id="rNiYW2FCLf6vyMSnKIOH-41" value="callback()" style="rounded=0;whiteSpace=wrap;html=1;fillColor=#99CCFF;strokeColor=#6c8ebf;" parent="1" vertex="1">
          <mxGeometry x="1000" y="100" width="90" height="30" as="geometry" />
        </mxCell>
        <mxCell id="rNiYW2FCLf6vyMSnKIOH-54" style="edgeStyle=orthogonalEdgeStyle;rounded=0;orthogonalLoop=1;jettySize=auto;html=1;entryX=0.5;entryY=0;entryDx=0;entryDy=0;" parent="1" source="rNiYW2FCLf6vyMSnKIOH-44" target="rNiYW2FCLf6vyMSnKIOH-50" edge="1">
          <mxGeometry relative="1" as="geometry" />
        </mxCell>
        <mxCell id="rNiYW2FCLf6vyMSnKIOH-56" value="Check" style="edgeLabel;html=1;align=center;verticalAlign=middle;resizable=0;points=[];" parent="rNiYW2FCLf6vyMSnKIOH-54" vertex="1" connectable="0">
          <mxGeometry x="0.0451" y="-1" relative="1" as="geometry">
            <mxPoint as="offset" />
          </mxGeometry>
        </mxCell>
        <mxCell id="rNiYW2FCLf6vyMSnKIOH-44" value="poll(context)" style="rounded=0;whiteSpace=wrap;html=1;fillColor=#99CCFF;strokeColor=#6c8ebf;" parent="1" vertex="1">
          <mxGeometry x="850" y="40" width="90" height="30" as="geometry" />
        </mxCell>
        <mxCell id="rNiYW2FCLf6vyMSnKIOH-45" style="edgeStyle=orthogonalEdgeStyle;rounded=0;orthogonalLoop=1;jettySize=auto;html=1;entryX=0;entryY=0.468;entryDx=0;entryDy=0;entryPerimeter=0;endArrow=none;endFill=0;" parent="1" source="rNiYW2FCLf6vyMSnKIOH-5" target="rNiYW2FCLf6vyMSnKIOH-2" edge="1">
          <mxGeometry relative="1" as="geometry" />
        </mxCell>
        <mxCell id="rNiYW2FCLf6vyMSnKIOH-46" value="drive" style="edgeLabel;html=1;align=center;verticalAlign=middle;resizable=0;points=[];" parent="rNiYW2FCLf6vyMSnKIOH-45" vertex="1" connectable="0">
          <mxGeometry x="0.1746" y="-1" relative="1" as="geometry">
            <mxPoint as="offset" />
          </mxGeometry>
        </mxCell>
        <mxCell id="rNiYW2FCLf6vyMSnKIOH-52" style="edgeStyle=orthogonalEdgeStyle;rounded=0;orthogonalLoop=1;jettySize=auto;html=1;entryX=0.5;entryY=0;entryDx=0;entryDy=0;dashed=1;strokeColor=#FF9933;" parent="1" source="rNiYW2FCLf6vyMSnKIOH-47" target="rNiYW2FCLf6vyMSnKIOH-44" edge="1">
          <mxGeometry relative="1" as="geometry">
            <Array as="points">
              <mxPoint x="570" y="-40" />
              <mxPoint x="895" y="-40" />
            </Array>
          </mxGeometry>
        </mxCell>
        <mxCell id="rNiYW2FCLf6vyMSnKIOH-61" value="schedule() and&lt;div&gt;returns ready or pending&lt;/div&gt;" style="edgeLabel;html=1;align=center;verticalAlign=middle;resizable=0;points=[];" parent="rNiYW2FCLf6vyMSnKIOH-52" vertex="1" connectable="0">
          <mxGeometry x="-0.506" y="-1" relative="1" as="geometry">
            <mxPoint x="35" y="-21" as="offset" />
          </mxGeometry>
        </mxCell>
        <mxCell id="rNiYW2FCLf6vyMSnKIOH-47" value="tokio runtime" style="rounded=0;whiteSpace=wrap;html=1;fillColor=#fff2cc;strokeColor=#d6b656;" parent="1" vertex="1">
          <mxGeometry x="540" y="30" width="140" height="80" as="geometry" />
        </mxCell>
        <mxCell id="rNiYW2FCLf6vyMSnKIOH-50" value="State" style="ellipse;whiteSpace=wrap;html=1;" parent="1" vertex="1">
          <mxGeometry x="865" y="95" width="60" height="40" as="geometry" />
        </mxCell>
        <mxCell id="rNiYW2FCLf6vyMSnKIOH-60" value="worker context" style="rounded=0;whiteSpace=wrap;html=1;fillColor=#FFCC99;strokeColor=#d79b00;" parent="1" vertex="1">
          <mxGeometry x="590" y="85" width="90" height="25" as="geometry" />
        </mxCell>
        <mxCell id="rNiYW2FCLf6vyMSnKIOH-64" value="&lt;b&gt;Rust async Library&lt;/b&gt;" style="rounded=0;whiteSpace=wrap;html=1;fillColor=#f5f5f5;verticalAlign=top;align=left;strokeColor=#666666;fontColor=#333333;" parent="1" vertex="1">
          <mxGeometry x="280" y="-250" width="845" height="160" as="geometry" />
        </mxCell>
        <mxCell id="rNiYW2FCLf6vyMSnKIOH-65" value="Handle" style="rounded=0;whiteSpace=wrap;html=1;fillColor=#dae8fc;strokeColor=#6c8ebf;fontStyle=1;verticalAlign=top;align=left;" parent="1" vertex="1">
          <mxGeometry x="390" y="-230" width="710" height="120" as="geometry" />
        </mxCell>
        <mxCell id="rNiYW2FCLf6vyMSnKIOH-67" style="edgeStyle=orthogonalEdgeStyle;rounded=0;orthogonalLoop=1;jettySize=auto;html=1;strokeWidth=2;strokeColor=#3399FF;" parent="1" source="rNiYW2FCLf6vyMSnKIOH-66" target="rNiYW2FCLf6vyMSnKIOH-48" edge="1">
          <mxGeometry relative="1" as="geometry" />
        </mxCell>
        <mxCell id="rNiYW2FCLf6vyMSnKIOH-66" value="async fn read()" style="rounded=0;whiteSpace=wrap;html=1;fillColor=#99CCFF;strokeColor=#6c8ebf;" parent="1" vertex="1">
          <mxGeometry x="870" y="-140" width="90" height="30" as="geometry" />
        </mxCell>
        <mxCell id="rNiYW2FCLf6vyMSnKIOH-71" style="edgeStyle=orthogonalEdgeStyle;rounded=0;orthogonalLoop=1;jettySize=auto;html=1;entryX=0.5;entryY=0;entryDx=0;entryDy=0;strokeWidth=2;strokeColor=#3399FF;" parent="1" source="rNiYW2FCLf6vyMSnKIOH-69" target="rNiYW2FCLf6vyMSnKIOH-70" edge="1">
          <mxGeometry relative="1" as="geometry" />
        </mxCell>
        <mxCell id="rNiYW2FCLf6vyMSnKIOH-69" value="fn write()" style="rounded=0;whiteSpace=wrap;html=1;fillColor=#99CCFF;strokeColor=#6c8ebf;" parent="1" vertex="1">
          <mxGeometry x="420" y="-140" width="90" height="30" as="geometry" />
        </mxCell>
        <mxCell id="rNiYW2FCLf6vyMSnKIOH-72" style="edgeStyle=orthogonalEdgeStyle;rounded=0;orthogonalLoop=1;jettySize=auto;html=1;strokeWidth=2;strokeColor=#3399FF;" parent="1" source="rNiYW2FCLf6vyMSnKIOH-70" target="rNiYW2FCLf6vyMSnKIOH-3" edge="1">
          <mxGeometry relative="1" as="geometry">
            <Array as="points">
              <mxPoint x="465" y="170" />
              <mxPoint x="695" y="170" />
            </Array>
          </mxGeometry>
        </mxCell>
        <mxCell id="rNiYW2FCLf6vyMSnKIOH-70" value="fn write()" style="rounded=0;whiteSpace=wrap;html=1;fillColor=#99CCFF;strokeColor=#6c8ebf;" parent="1" vertex="1">
          <mxGeometry x="420" width="90" height="30" as="geometry" />
        </mxCell>
      </root>
    </mxGraphModel>
  </diagram>
</mxfile>
